Coordinates
version=1
nRows=24
nColumns=24
inDegrees=yes

Units are S.I. units (second, meters, Newtons, ...)
Angles are in degrees.

endheader
time	pelvis_tilt	pelvis_list	pelvis_rotation	pelvis_tx	pelvis_ty	pelvis_tz	hip_flexion_r	hip_adduction_r	hip_rotation_r	knee_angle_r	ankle_angle_r	subtalar_angle_r	mtp_angle_r	hip_flexion_l	hip_adduction_l	hip_rotation_l	knee_angle_l	ankle_angle_l	subtalar_angle_l	mtp_angle_l	lumbar_extension	lumbar_bending	lumbar_rotation
      0.01000000	     65.72058694	      2.93424562	     -4.56271586	      0.54961878	      1.00023936	     -0.29692991	      6.44168865	     -8.71228205	     15.17772317	      2.25310605	    -21.80227230	      7.91358909	    -20.13085643	     -7.05642427	     -1.82523446	      2.39420077	    -55.57297779	      2.10970170	      9.76681842	    -40.55990637	      0.00000000	      0.00000000	      0.00000000
      0.02000000	     65.64234222	      2.96912881	     -4.57734854	      0.54946080	      1.00022074	     -0.29685608	      6.50441579	     -8.69823066	     15.27341112	      2.34556282	    -22.47502680	      6.95147510	    -20.42403000	     -6.89015019	     -1.80364105	      2.28815734	    -55.85233958	      1.37384364	     10.10647390	    -34.64624370	      0.00000000	      0.00000000	      0.00000000
      0.03000000	     65.61167005	      2.99437143	     -4.58294172	      0.54938855	      1.00019829	     -0.29682844	      6.52503228	     -8.69988939	     15.30988585	      2.41916388	    -22.78317562	      6.53464278	    -20.45617630	     -6.73789564	     -1.76514545	      2.22462820	    -56.31175606	      0.46581629	     10.92119175	    -25.00065791	      0.00000000	      0.00000000	      0.00000000
      0.04000000	     65.62353259	      3.01197627	     -4.58033615	      0.54937542	      1.00017541	     -0.29684660	      6.50222236	     -8.71953461	     15.29946874	      2.47091359	    -22.82865115	      6.50969559	    -20.29374180	     -6.61853258	     -1.71792994	      2.18903982	    -56.84931066	     -0.85013334	     12.10913067	    -11.92082742	      0.00000000	      0.00000000	      0.00000000
      0.05000000	     65.66891388	      3.02523749	     -4.57028373	      0.54936855	      1.00016324	     -0.29689667	      6.44000408	     -8.75449126	     15.25843436	      2.50131580	    -22.72591850	      6.70359262	    -20.01484468	     -6.56246137	     -1.67023538	      2.17025786	    -57.33823320	     -2.80510134	     13.52916277	      4.06529635	      0.00000000	      0.00000000	      0.00000000
      0.06000000	     65.73712950	      3.03660869	     -4.55496154	      0.54933113	      1.00018506	     -0.29694586	      6.34924369	     -8.79659625	     15.20447505	      2.51572498	    -22.57359948	      6.96624711	    -19.69246857	     -6.60252993	     -1.62908423	      2.16593405	    -57.65517895	     -5.52761301	     15.02116536	     22.20134832	      0.00000000	      0.00000000	      0.00000000
      0.07000000	     65.81805239	      3.04546593	     -4.53921237	      0.54928544	      1.00025524	     -0.29696571	      6.24522299	     -8.83476118	     15.15421936	      2.52255672	    -22.44007257	      7.19273145	    -19.38471651	     -6.76132631	     -1.60067343	      2.18092691	    -57.70560300	     -8.98713337	     16.42651739	     41.54450636	      0.00000000	      0.00000000	      0.00000000
      0.08000000	     65.90176408	      3.04793253	     -4.52930541	      0.54928995	      1.00034498	     -0.29695870	      6.14277261	     -8.85769216	     15.12078727	      2.53011521	    -22.36074641	      7.32832998	    -19.13076955	     -7.04163064	     -1.59036108	      2.21958378	    -57.44681372	    -12.98609871	     17.60821450	     61.04386629	      0.00000000	      0.00000000	      0.00000000
      0.09000000	     65.97862714	      3.03851520	     -4.53037898	      0.54934513	      1.00038551	     -0.29693344	      6.05079007	     -8.85642468	     15.11167113	      2.54356664	    -22.34334225	      7.36148434	    -18.95102788	     -7.42102011	     -1.60222913	      2.27669730	    -56.90310744	    -17.19832176	     18.46878622	     79.64512136	      0.00000000	      0.00000000	      0.00000000
      0.10000000	     66.04455096	      3.01277018	     -4.54568889	      0.54934899	      1.00032746	     -0.29685687	      5.96905678	     -8.82727866	     15.12746165	      2.56345143	    -22.37709702	      7.31020466	    -18.84989915	     -7.84940790	     -1.64004526	      2.33400236	    -56.16403147	    -21.24139893	     18.96343384	     96.40502221	      0.00000000	      0.00000000	      0.00000000
      0.11000000	     66.10730936	      2.97028665	     -4.57794970	      0.54925675	      1.00021988	     -0.29670357	      5.89063600	     -8.77379722	     15.16210504	      2.58697515	    -22.44232151	      7.20699183	    -18.81985318	     -8.25524975	     -1.70887669	      2.36584788	    -55.36328173	    -24.76287963	     19.10606312	    110.59449171	      0.00000000	      0.00000000	      0.00000000
      0.12000000	     66.17846922	      2.91540074	     -4.62742755	      0.54919327	      1.00017337	     -0.29653440	      5.80933290	     -8.70525610	     15.20506473	      2.61148785	    -22.51806305	      7.08603983	    -18.84571325	     -8.57168305	     -1.81126886	      2.35010712	    -54.64769444	    -27.51620758	     18.96631247	    121.76896594	      0.00000000	      0.00000000	      0.00000000
      0.13000000	     66.25430099	      2.85418300	     -4.68598073	      0.54925430	      1.00020671	     -0.29643457	      5.72637620	     -8.63217183	     15.24486102	      2.63727603	    -22.58712316	      6.97479477	    -18.90858502	     -8.77079060	     -1.93750738	      2.27753631	    -54.14355334	    -29.40272294	     18.65505518	    129.79166473	      0.00000000	      0.00000000	      0.00000000
      0.14000000	     66.31464544	      2.79090919	     -4.73687924	      0.54937750	      1.00024675	     -0.29641564	      5.65015291	     -8.56276314	     15.27264085	      2.66690587	    -22.63865715	      6.89019819	    -18.98914528	     -8.87032619	     -2.06193432	      2.15685128	    -53.91949479	    -30.46594801	     18.29759858	    134.80917986	      0.00000000	      0.00000000	      0.00000000
      0.15000000	     66.34459498	      2.72934469	     -4.76475727	      0.54947414	      1.00026985	     -0.29642669	      5.58904377	     -8.50336534	     15.28436737	      2.70155271	    -22.66878628	      6.83862728	    -19.07013612	     -8.90703399	     -2.15417181	      2.01496057	    -53.95856044	    -30.84669795	     18.00088096	    137.19167650	      0.00000000	      0.00000000	      0.00000000
      0.16000000	     66.35130045	      2.67780637	     -4.76668334	      0.54953053	      1.00030374	     -0.29642922	      5.54417838	     -8.46123337	     15.28096685	      2.73807362	    -22.67952266	      6.81804155	    -19.13794786	     -8.90930945	     -2.19737131	      1.89062410	    -54.16336849	    -30.72562853	     17.82719392	    137.45559999	      0.00000000	      0.00000000	      0.00000000
      0.17000000	     66.35842092	      2.64962628	     -4.75338843	      0.54957346	      1.00032573	     -0.29643493	      5.50858263	     -8.44512979	     15.26681668	      2.77007878	    -22.67647834	      6.82107122	    -19.18329850	     -8.89304237	     -2.19629613	      1.82068780	    -54.40048530	    -30.27855095	     17.78545277	    136.18487539	      0.00000000	      0.00000000	      0.00000000
      0.18000000	     66.38688241	      2.65602686	     -4.73929658	      0.54959153	      1.00027108	     -0.29646050	      5.47204744	     -8.46120740	     15.24754374	      2.79212957	    -22.66623526	      6.83820732	    -19.20120958	     -8.87345329	     -2.16811320	      1.82353563	    -54.56076581	    -29.65451481	     17.84229214	    133.96111974	      0.00000000	      0.00000000	      0.00000000
      0.19000000	     66.44083885	      2.69739953	     -4.73135665	      0.54952952	      1.00013906	     -0.29647428	      5.42637813	     -8.50764365	     15.22800008	      2.80324450	    -22.65432004	      6.86046423	    -19.19055994	     -8.87197503	     -2.12663291	      1.88971980	    -54.60022846	    -28.97156995	     17.94520160	    131.30833138	      0.00000000	      0.00000000	      0.00000000
      0.20000000	     66.50915163	      2.76114109	     -4.72728786	      0.54938153	      1.00002586	     -0.29642899	      5.36786938	     -8.57360404	     15.21095071	      2.80713664	    -22.64427382	      6.88106430	    -19.15341779	     -8.90822612	     -2.07590288	      1.98735095	    -54.54092136	    -28.31946391	     18.04538531	    128.65439733	      0.00000000	      0.00000000	      0.00000000
      0.21000000	     66.57712442	      2.82883184	     -4.72273283	      0.54922793	      1.00002588	     -0.29633538	      5.29780031	     -8.64377595	     15.19673930	      2.80977903	    -22.63771279	      6.89603457	    -19.09423402	     -8.98588878	     -2.01681335	      2.07946756	    -54.43967147	    -27.76184910	     18.11138033	    126.30999526	      0.00000000	      0.00000000	      0.00000000
      0.22000000	     66.63571855	      2.88601702	     -4.71751464	      0.54914529	      1.00013443	     -0.29625683	      5.22255272	     -8.70481600	     15.18388889	      2.81653187	    -22.63494294	      6.90395033	    -19.01893674	     -9.08750360	     -1.95546231	      2.14132224	    -54.35041046	    -27.33668221	     18.13171876	    124.46405783	      0.00000000	      0.00000000	      0.00000000
      0.23000000	     66.68146781	      2.92648897	     -4.71464200	      0.54914073	      1.00027107	     -0.29623223	      5.15300481	     -8.74948617	     15.17023644	      2.83030624	    -22.63568381	      6.90521022	    -18.93399622	     -9.18309037	     -1.90284022	      2.16724223	    -54.30144285	    -27.05691471	     18.11018131	    123.19345982	      0.00000000	      0.00000000	      0.00000000
      0.24000000	     66.71067221	      2.95111846	     -4.71539340	      0.54917817	      1.00036036	     -0.29624307	      5.10196158	     -8.77718789	     15.15403579	      2.85093381	    -22.63959075	      6.90119210	    -18.84556737	     -9.24520451	     -1.86813300	      2.16663195	    -54.29300627	    -26.91347485	     18.05843330	    122.48319896	      0.00000000	      0.00000000	      0.00000000
